<svg width="1576" height="1748" viewBox="0 0 1576 1748" fill="none" xmlns="http://www.w3.org/2000/svg">
<g clip-path="url(#clip0_6026_2451)">
<path d="M1319.98 1166.91C1304.75 1197.41 1280.77 1219.52 1251.98 1236.67C1216.26 1257.93 1180.34 1278.87 1144.25 1299.5C1127.45 1309.1 1109.62 1316.68 1090.37 1319.85C1051.17 1326.31 1017.28 1314.65 988.42 1288.14C963.5 1265.25 951.25 1235.95 947.7 1202.51C944.56 1202.43 944.36 1205.14 943.36 1206.87C938.22 1215.81 933.35 1224.91 928.04 1233.74C919 1248.76 907.61 1261.65 892.8 1271.3C882.6 1277.95 871.5 1282.38 859.38 1283.51C834.6 1285.82 813.99 1273.88 807.28 1248.17C802.99 1249.56 801.93 1253.82 799.66 1256.79C788.01 1272.09 773.57 1283.33 754.68 1288.12C719.07 1297.15 690.93 1280.58 681.34 1244.97C677.55 1246.25 677.41 1250.05 676.09 1252.83C671.96 1261.57 667.53 1270.1 661.94 1278.03C648.37 1297.26 629.18 1303.15 606.86 1300.98C589.87 1299.32 575.79 1291.88 564.86 1276.78C561.12 1298.59 551.41 1316.99 543.44 1336.08C535.51 1355.1 528.76 1374.61 520.74 1393.6C504.34 1432.45 481.74 1467.13 449.12 1494.41C412.76 1524.82 370.54 1539.73 323.16 1539.62C306.04 1539.58 289.32 1536.38 273.66 1529.33C237.63 1513.12 220.11 1483.88 216.4 1445.61C213.21 1412.75 217.64 1380.53 226.01 1348.76C237.99 1303.26 253.38 1259.06 276.37 1217.82C289.07 1195.04 304.01 1173.87 322.76 1155.56C329.94 1148.55 337.66 1142.25 346.42 1137.31C354.03 1133.02 361.99 1129.86 370.94 1129.79C386.44 1129.66 398 1135.97 404.31 1150.44C412.32 1168.81 415.14 1188.22 413.61 1208.03C410.98 1242.03 393.45 1267.2 365.6 1285.81C365.1 1286.14 364.33 1286.08 363.28 1286.27C361.6 1283.19 363.11 1280 363.24 1276.93C364.13 1255.8 352.23 1243.74 331.28 1246.38C298.29 1250.55 257.89 1274.21 257.89 1325.78C257.89 1340.71 260.68 1354.84 266.47 1368.49C280.9 1402.57 307.64 1419.78 343.5 1423.54C376.08 1426.95 408.09 1423.75 438.52 1410.9C492.02 1388.3 523.69 1347.38 535.69 1291.28C543.91 1252.87 543.41 1213.93 539.1 1174.98C532.74 1117.51 517.71 1062.01 500.92 1006.93C483.85 950.94 467.86 894.61 448.4 839.37C430.67 789.05 409.76 740.19 380.64 695.22C349.15 646.6 309.66 606.44 257.93 579.23C257.35 578.93 256.88 578.41 256.36 578C256.41 576.27 256.91 574.69 258.24 573.54C268.52 564.68 278.53 555.47 289.2 547.1C307.67 532.61 326.59 518.69 345.24 504.42C351.51 499.62 359.13 496.67 364.32 490.41C365.06 490.38 365.81 490.35 366.55 490.33C426.61 572.44 469.93 663.12 503.85 758.61C532.51 839.3 553.96 921.99 572.16 1005.57C578.95 1036.76 585.96 1067.92 591.14 1099.43C593.19 1111.89 594.58 1124.47 597.84 1136.72C598.27 1138.33 598.61 1139.96 599.08 1141.55C609.2 1175.34 624.93 1187.87 666.43 1186.61C674.84 1186.35 676.73 1184.91 683.37 1178.44C695.43 1139.69 704.52 1100.28 725.83 1065.47C729.09 1060.15 732.15 1054.52 738.02 1050.61C741.14 1054.8 739.63 1059.01 738.99 1063.08C734.53 1091.39 738.31 1118.77 748.39 1145.38C750.14 1150 752.61 1154.44 755.28 1158.62C774.51 1188.81 809.16 1177 820.61 1155.53C823.65 1149.83 824.94 1143.72 826.09 1137.49C830.27 1114.84 836.57 1092.83 845.92 1071.73C849.45 1063.77 854.07 1056.47 859.25 1049.52C860.97 1047.22 862.42 1044.36 866.4 1044.07C868.49 1046.65 867.19 1049.46 866.79 1052.29C863.37 1076.65 863.7 1100.76 872.1 1124.26C876.41 1136.32 882.57 1147.24 891.97 1156.17C895.14 1159.18 898.61 1161.74 902.46 1163.74C916.65 1171.08 931 1167.64 940.43 1154.71C946 1147.07 949.06 1138.24 952.05 1129.42C958.55 1110.2 964.68 1090.85 972.62 1072.16C976.01 1064.18 980.04 1056.52 984.88 1049.33C986.82 1046.46 988.36 1042.85 992.44 1042.32C995.22 1043.97 994.31 1046.54 994.45 1048.69C995.16 1060.34 994.69 1071.99 994.22 1083.65C991.49 1152.31 1048.31 1208.92 1116.92 1206.02C1119.82 1205.9 1122.85 1206.25 1125.4 1204.72C1125.51 1203.78 1125.86 1202.99 1125.61 1202.57C1111.4 1178.75 1109.55 1152.91 1113.48 1126.28C1120.84 1076.43 1137.55 1029.61 1160.4 984.91C1166.01 973.94 1173.01 963.78 1182.04 955.15C1198.02 939.88 1217.06 933.91 1238.8 936.47C1247.08 937.44 1253.88 942.1 1259.27 948.05C1268.85 958.61 1274.01 970.48 1269.93 985.49C1262.4 1013.16 1254.31 1040.56 1239.91 1065.61C1236.85 1070.92 1234.41 1076.89 1228.51 1080.14C1208.25 1046.73 1185.84 1040.35 1158.33 1059.84C1156.94 1062.76 1157.98 1065.68 1158.7 1068.54C1166.51 1099.32 1192.66 1119.36 1226.52 1120.19C1265.67 1121.15 1300.2 1107.91 1331.71 1085.51C1334.31 1083.66 1336.14 1080.32 1340.05 1080.7C1336.95 1099.17 1332.6 1117.36 1327.83 1135.46C1325.08 1145.91 1320.58 1155.95 1320 1166.94L1319.98 1166.91Z" fill="#232123"/>
<path d="M1319.98 1166.91C1320.56 1155.91 1325.06 1145.88 1327.81 1135.43C1332.58 1117.33 1336.94 1099.14 1340.03 1080.67C1344.01 1067.56 1345.26 1053.96 1346.96 1040.48C1350.89 1009.43 1350.25 978.81 1338.73 948.98C1332.14 931.92 1326 914.68 1318.68 897.91C1298.28 851.18 1272.73 807.14 1248.75 762.23C1218.98 706.48 1187.65 651.5 1160.9 594.17C1142.83 555.46 1127.85 515.67 1121.04 473.25C1111.17 411.76 1117.35 352.74 1141.45 294.39C1171.8 220.88 1219.11 159.01 1267.43 97.49C1292.55 65.51 1320.28 35.75 1348.92 6.88C1351.42 4.36 1353.35 0.97 1357.37 0C1361.4 4.38 1360.12 9.47 1358.81 14.16C1354.42 29.85 1349.47 45.39 1345.09 61.08C1330.57 113.08 1323.8 166.07 1326.41 220.05C1329.49 283.57 1344.15 344.34 1370.59 402.27C1399.48 465.54 1431.13 527.47 1460.93 590.29C1492.46 656.78 1521.78 724.15 1542.59 794.92C1557.36 845.17 1567.31 896.28 1572.33 948.47C1583.55 1065.1 1561.9 1175.74 1513.07 1281.58C1485.48 1341.39 1452.15 1397.67 1409.16 1447.87C1374.2 1488.69 1334.55 1523.9 1286.51 1548.82C1251.53 1566.97 1214.52 1577.82 1175 1580.27C1138.41 1582.53 1106.14 1571.42 1076.7 1550.6C1042.28 1526.26 1016.85 1494.01 996.15 1457.79C977.38 1424.95 963.94 1389.93 954.57 1353.32C954.17 1351.75 954.16 1350.08 953.88 1347.67C958.39 1350.18 960.67 1353.89 963.47 1356.99C1005.18 1403.05 1053.58 1439.78 1111.63 1462.94C1185.68 1492.48 1257.76 1488 1326.52 1447.64C1404 1402.16 1462.81 1339.54 1496.49 1255.15C1511.16 1218.4 1518.99 1180.09 1522.05 1140.68C1527.34 1072.46 1517.54 1005.87 1500.79 940.05C1482.02 866.3 1454.54 795.67 1423 726.55C1391.92 658.43 1357.3 592.02 1324.74 524.61C1302.9 479.39 1286.56 432.54 1279.01 382.69C1273.85 348.62 1272.45 314.44 1273.79 280.11C1275.77 228.98 1285.04 179.01 1298.57 129.76C1299.18 127.55 1300.45 125.45 1299.41 122.54C1295.21 123.89 1292.35 127.1 1289.23 129.78C1243.87 168.71 1213.9 217.3 1199.28 275.16C1181.23 346.56 1184.82 417.07 1210.31 486.16C1221.41 516.25 1237.87 543.8 1254.74 570.93C1303.48 649.32 1338.17 733.57 1360.64 822.93C1373.53 874.17 1381.01 926.19 1377.4 979.15C1373.07 1042.66 1357.57 1103.16 1325.61 1158.8C1323.98 1161.64 1322.8 1164.86 1319.98 1166.91Z" fill="#00274B"/>
<path d="M752.09 286.14C712.39 311.2 673.65 335.65 634.86 360.13C632.58 391.07 630.34 421.56 628.05 452.68C619.93 457.98 611.64 463.38 601.92 469.73C596.97 436.77 592.2 405.06 587.37 372.94C559.33 357.89 531.27 342.83 502.73 327.52C510.16 320.85 518.31 316.33 526.2 310.59C555.74 317.68 585.44 324.81 616.05 332.16C651.65 303.42 687.6 274.39 724.92 244.25C645.39 202.32 566.86 160.92 486.87 118.75C495.11 113.68 502.07 109.4 509.62 104.75C550.2 114.88 591.09 125.09 631.97 135.3C643.28 127.44 654.18 119.87 665.08 112.3C669.29 114.48 671.65 118.15 674.69 121.73C668.33 129 659.32 133.04 651.71 140.75C675.78 147.03 698.86 153.05 722.5 159.22C734.43 151.01 746.44 142.74 758.75 134.27C762.33 137.12 764.09 141 766.76 145.54C758.82 151.42 750.92 157.26 741.34 164.35C765.09 170.48 787.3 176.2 809.31 181.88C822.29 172.81 834.68 163.84 847.4 155.36C866.51 142.62 885.94 130.37 907.27 121.56C914.66 118.51 922.19 115.68 930.4 116.06C940.86 116.54 944.54 122.44 940.44 132.2C936.63 141.26 930.24 148.54 923.59 155.57C908.22 171.83 891.12 186.17 873.5 199.89C862.49 208.47 851.29 216.79 840.04 225.32C838.25 247.63 836.48 269.83 834.57 293.62C844.4 288.66 851.76 281.95 860.79 276.72C864.29 280.15 866.58 284.29 868.96 289.15C857.38 296.95 846.14 304.52 834.84 312.13C832.17 336.94 829.55 361.36 826.77 387.29C837.05 382.67 844.37 375.46 853.21 370.59C856.86 373.43 858.15 377.71 861.33 381.85C849.52 390.44 838.01 398.81 826.34 407.3C823.44 448.84 820.53 490.32 817.62 531.98C810.97 537.46 804.1 542.56 795.74 547.72C781.16 460.37 766.73 373.84 752.09 286.13V286.14Z" fill="#232123"/>
<path d="M364.3 490.41C359.11 496.67 351.49 499.62 345.22 504.42C326.57 518.69 307.65 532.61 289.18 547.1C278.51 555.47 268.51 564.68 258.22 573.54C256.89 574.69 256.4 576.27 256.34 578C254.22 577.96 252.62 578.86 251.07 580.33C206.15 622.82 164.57 668.13 132.86 721.63C117.71 747.19 104.23 773.75 97.71 802.86C88.36 844.64 96.04 882.42 129.25 912.09C147.13 928.06 169.15 935.7 192.34 940.15C223.43 946.12 254.66 945.1 285.86 941.17C334.94 934.99 382.3 921.78 428.88 905.52C431.98 904.44 435.14 903.51 438.28 902.57C438.51 902.5 438.87 902.83 439.62 903.2C421.89 912.12 403.88 919.65 385.87 927.15C339.47 946.46 292.34 963.68 243.34 975.29C207.2 983.85 170.61 988.47 133.42 985.71C104.27 983.55 76.19 977.28 50.9 961.61C12.04 937.53 -5.8 897.44 1.65 852.19C7.09 819.12 20.81 789.36 36.73 760.36C59.03 719.73 88.48 684.62 120.3 651.24C151.82 618.16 184.49 586.37 220.64 558.31C255.62 532.1 290.52 505.75 327.78 482.83C335.55 478.05 342.79 471.83 352.21 470.04C353.29 469.96 353.84 469.3 354.11 468.32L354.21 468.27C354.85 467.84 355.48 467.4 356.12 466.97C356.73 466.72 357.34 466.47 357.94 466.21C358.67 465.76 359.4 465.3 360.13 464.85C360.49 464.21 361.03 463.98 361.74 464.15C362.54 463.68 363.35 463.2 364.15 462.73C364.43 462.12 364.9 461.91 365.55 462.1C366.42 461.62 367.29 461.14 368.16 460.65C368.76 460.32 369.36 459.99 369.95 459.65C370.89 468.23 364.78 473.47 360.18 479.17C356.76 483.42 353 487.3 350.2 493.68C355.56 491.95 359.64 489.47 364.28 490.39L364.3 490.41Z" fill="#00274B"/>
<path d="M1354.14 1717.13C1350.94 1713.68 1347.18 1709.63 1342.29 1704.36V1717.14H1292.83C1289.82 1713.78 1286.55 1710.13 1282.26 1705.34C1281.75 1709.93 1281.37 1713.29 1280.93 1717.23H1130.79C1126.37 1714.31 1124.19 1708.21 1118.25 1704.58C1118.04 1709.11 1117.86 1712.94 1117.68 1716.69C1114.75 1718.54 1111.67 1717.76 1108.75 1717.77C1088.1 1717.84 1067.45 1717.8 1046.81 1717.79C1042.48 1717.79 1038.2 1717.64 1033.99 1716.26C1027.42 1714.12 1023.16 1709.96 1021.65 1703.17C1021.15 1700.9 1020.47 1698.6 1020.46 1696.31C1020.38 1670.03 1020.41 1643.75 1020.41 1616.1C1031.14 1615.68 1041.55 1615.89 1053.21 1615.96V1689.29C1060.74 1694.53 1065.17 1694.98 1086.06 1693.1V1645.58C1096.99 1644.39 1106.86 1644.8 1117.85 1645.34V1693.33H1146.14C1145.64 1677.41 1147.77 1661.92 1144.38 1645.66C1152.61 1644.19 1161.37 1644.27 1170.03 1645.78C1175.58 1646.75 1178.1 1650.21 1178.41 1656.6C1178.79 1664.58 1178.53 1672.58 1178.69 1680.57C1178.77 1684.52 1178.07 1688.53 1179.54 1693.22C1185.09 1694.5 1190.94 1693.44 1198.14 1693.92C1197.31 1677.63 1200.08 1661.9 1195.56 1645.38C1203.89 1644.49 1212.1 1644.38 1220.21 1645.46C1226.73 1646.33 1229.85 1650.19 1230.11 1657.21C1230.43 1665.86 1230.13 1674.53 1230.29 1683.18C1230.35 1686.42 1229.43 1689.81 1231.44 1693.34H1249.11C1248.31 1677.4 1251.17 1661.59 1246.16 1644.96C1253.28 1644.96 1260.14 1644.74 1266.98 1645.01C1277.28 1645.41 1281.09 1649.36 1281.39 1659.98C1281.63 1668.63 1281.43 1677.3 1281.47 1685.96C1281.48 1688.24 1281.66 1690.51 1281.79 1693.3C1290.67 1694.16 1299.14 1693.95 1308.64 1693.44C1308.11 1667.52 1309.71 1642.11 1307.46 1616.13C1313.22 1616.13 1319.86 1615.87 1326.48 1616.19C1337.78 1616.73 1341.96 1621.09 1342.03 1632.39C1342.15 1652.35 1342.06 1672.3 1342.06 1692.71C1351.2 1695.01 1360.07 1693.07 1370.31 1694.17C1370.19 1667.99 1371.08 1642.63 1369.64 1616.47C1376.02 1615.61 1383.88 1615.62 1391.6 1616.53C1399.83 1617.5 1403.73 1621.72 1403.79 1629.69C1403.99 1658.63 1403.87 1687.56 1403.87 1717.15H1354.15L1354.14 1717.13Z" fill="#00274B"/>
<path d="M264.28 1717.23C260.82 1713.32 257.15 1709.19 253.48 1705.05C254.11 1722.51 247.38 1735.14 231.93 1742.62C220.77 1748.02 209.35 1749.97 197.6 1744.08C197.87 1741.4 199.95 1741.78 201.17 1741.23C214.02 1735.37 220.36 1725.59 220.18 1711.32C219.95 1692.67 220.08 1674.02 220.17 1655.36C220.19 1652.12 219.37 1648.75 221.27 1645.16C230.95 1644.4 240.81 1644.51 251.74 1645.16V1693.31H282.92C285 1686.7 283.73 1679.73 283.79 1672.89C283.96 1653.35 292.12 1644.91 311.62 1644.74C321.28 1644.66 330.95 1644.48 340.59 1644.88C358.76 1645.63 367.03 1654.13 367.7 1672.44C367.94 1679.08 367.74 1685.74 367.74 1693.1H393.71C396.35 1684.91 396.01 1658.39 392.84 1644.97C399.9 1644.97 406.82 1644.73 413.73 1645.03C423.55 1645.45 427.45 1649.39 427.76 1659.34C428.05 1668.66 427.8 1677.99 427.89 1687.32C427.91 1689.22 427.26 1691.33 429.21 1693.39H446.75C445.84 1677.43 448.56 1661.7 444.24 1644.98C451.64 1644.98 458.82 1644.68 465.98 1645.05C475.22 1645.53 478.55 1648.87 478.96 1658.07C479.33 1666.38 479.03 1674.72 479.16 1683.05C479.21 1686.33 478.48 1689.71 480.25 1693.33C485.57 1694.16 491.09 1693.97 497.96 1693.29C496.85 1677.43 500.25 1661.64 494.84 1645.11C502.94 1645.11 510.79 1644.69 518.58 1645.23C526.19 1645.76 529.61 1649.77 529.9 1657.77C530.2 1665.75 530.01 1673.76 530.02 1681.75C530.02 1685.36 530.02 1688.97 530.02 1693.08C539.43 1694.33 548.2 1693.82 558.02 1693.51C557.35 1667.39 559.16 1641.97 556.74 1616.16C562.99 1616.16 569.98 1615.78 576.92 1616.25C586.7 1616.91 591.18 1621.13 591.27 1630.63C591.55 1659.22 591.37 1687.82 591.37 1717.1H541.59C538.62 1713.75 535.18 1709.88 530.5 1704.6C530.16 1709.86 529.94 1713.3 529.68 1717.26H380.05C375.88 1714.89 374.01 1708.87 368.92 1705.89C366.72 1709.53 368.67 1713.37 366.92 1717.22H264.27L264.28 1717.23ZM332.76 1681.13C320.43 1676.17 314.06 1680.77 315.35 1693.82C322.17 1693.66 329.06 1694.45 335.82 1693.3C336.85 1688.71 335.6 1685.05 332.76 1681.14V1681.13Z" fill="#00274B"/>
<path d="M816.98 1717.28V1679.34C805.75 1677.44 797.4 1681.1 793.84 1689.01C789.09 1699.59 793.14 1707.96 809.24 1720.83C790.51 1721.93 772.73 1708.84 769.41 1691.49C766.88 1678.28 774.08 1662.59 786.4 1654.68C791.18 1651.61 796.37 1649.39 801.86 1647.89C812.95 1644.88 834.25 1643.88 848.07 1645.91V1693.09H965.12C964.46 1682.79 960.18 1678.15 950.11 1678.08C926.47 1677.91 902.83 1678.06 879.19 1677.99C876.26 1677.99 873.47 1678.59 870.14 1679.85C869.86 1668.5 869.31 1657.97 870.4 1648.08C873.75 1644.24 877.52 1644.57 881.14 1644.57C906.11 1644.56 931.08 1644.41 956.05 1644.63C977.2 1644.82 991.12 1655.25 995.46 1675.74C998.41 1689.7 1000.89 1703.65 1007.71 1717.28H816.98Z" fill="#00274B"/>
<path d="M754.04 767.01C755.67 769.65 759.59 769.75 760.47 773.63C761.66 777.98 756.67 778.74 754.6 781.55C753.69 795.12 759.12 807.44 763.14 819.49C756.02 825.23 746.84 824.38 736.06 817.6C730.16 806.54 729.15 793.84 726.63 780.57C705.25 781.18 684.69 788.91 663.02 785.75C652.91 799.31 643.01 812.621 633.08 825.901C623.12 839.221 613.03 852.45 603.19 865.86C598.21 872.66 590.68 874.1 583.37 876.1C582.2 876.42 580.83 875.46 579.82 872.61C579.69 869.2 583.18 866.25 585.69 862.97C601.89 841.84 618.22 820.82 634.49 799.74C637.51 795.83 640.41 791.84 643.79 787.31C634.57 783.73 623.63 790.32 615.79 780.32C625.34 764.05 639.61 760.151 657.02 764.951C668.3 752.081 679 739.82 689.77 727.61C700.78 715.13 711.81 702.66 722.91 690.25C733.69 678.19 744.39 666.05 756.09 655.23C763.82 659.59 762.57 665.421 761.36 670.891C757.69 687.481 754.83 704.21 754.16 721.16C753.56 736.44 754.03 751.75 754.03 767L754.04 767.01ZM734.83 695.99C718.43 711.96 681.21 757.96 678.34 765.6C686.04 766.03 693.59 766.361 701.12 766.891C708.96 767.441 716.8 768.23 725.42 767.36C724.69 743.36 727.7 720.51 734.82 696L734.83 695.99Z" fill="#232123"/>
<path d="M352.22 470.05C342.8 471.84 335.56 478.06 327.79 482.84C290.52 505.76 255.62 532.11 220.65 558.32C220.14 550.88 222.19 543.81 224.33 536.88C232.94 508.9 244.61 482.22 259.07 456.78C260.05 455.05 261.16 453.39 262.31 451.78C273.91 435.52 291 430.33 309.58 437.55C323.2 442.84 333.84 452.28 343.98 462.44C346.47 464.94 348.11 468.66 352.32 469.03C352.26 469.37 352.23 469.71 352.23 470.06L352.22 470.05Z" fill="#232123"/>
<path d="M690.33 1743.3C706.38 1735.52 710.83 1730.4 712.41 1717.74H661.41C661.41 1712.96 661.41 1708.76 661.41 1704.56C661.43 1692.57 661.24 1680.58 661.53 1668.6C661.86 1654.94 669.9 1645.6 683.59 1645.04C703.49 1644.23 723.45 1644.83 742.67 1644.83C745.67 1647.07 744.99 1649.57 744.99 1651.78C745.04 1671.76 745.15 1691.73 744.97 1711.71C744.73 1738.06 715.48 1755.43 690.34 1743.29L690.33 1743.3ZM692.55 1693.91C699.6 1693.29 706.71 1694.94 713.88 1692.82C713.84 1687.96 714.96 1683.41 713.22 1679.13C696.91 1677.56 692.22 1680.82 692.55 1693.91Z" fill="#00274B"/>
<path d="M1099.73 745.27C1100.63 749.55 1099.15 752.62 1098.37 755.84C1094.38 772.32 1090.33 788.79 1086.6 805.34C1084.86 813.06 1082.64 820.92 1086.54 828.46C1080.83 840.18 1071.22 829.95 1064.07 833.99C1054.89 824.1 1059.04 812.22 1057.67 799.29C1041.94 818.79 1021.4 825.43 999.72 829.45C990.1 824.79 986.97 818.29 989.75 808.45C992.14 799.98 997 792.74 1002.04 785.72C1018.44 762.85 1040.05 746.86 1066.71 737.8C1074.53 735.14 1082.4 735.24 1090.16 738.22C1093.93 739.67 1097.44 741.48 1099.72 745.28L1099.73 745.27ZM1078.9 750.78C1072.15 748.64 1068.74 751.58 1065.32 753.98C1051.59 763.64 1039.8 775.29 1030.07 788.98C1026.98 793.33 1024.45 798 1023.03 803.22C1022.39 805.57 1021.89 807.78 1026.11 810.65C1050.61 797.88 1065.91 776.3 1078.9 750.77V750.78Z" fill="#232123"/>
<path d="M1146.8 704.13C1159.76 696.66 1175.14 691.01 1182.01 690.95C1185.59 695.56 1182.65 699.94 1180.98 703.98C1175.03 718.4 1168.65 732.64 1162.46 746.96C1156.13 761.58 1149.2 775.97 1144.62 791.27C1142.89 797.06 1139.75 803.3 1144.92 809.65C1159.04 814.98 1167.03 801.07 1178.17 797.22C1182.41 802.38 1180.38 806.36 1177.52 809.57C1165.51 823.03 1150.36 831.45 1133.3 837.16C1126.4 831.61 1118.19 829.3 1112.13 823.63C1111.53 812.89 1113.15 802.85 1117.02 793.15C1125.52 771.89 1133.97 750.61 1142.42 729.32C1145.61 721.28 1148.89 713.24 1146.81 704.13H1146.8Z" fill="#232123"/>
<path d="M886.86 723.27C885.98 721.96 886.09 720.99 887.58 720.13C900.84 712.42 914.62 705.92 929.66 702.54C933.2 701.75 936.92 701.54 940.56 701.46C966.48 700.92 982.59 716.06 983.65 741.95C984.13 753.7 981.9 765.1 978.81 776.36C971.5 803.04 958.18 826.65 941.9 848.77C925.67 870.81 901.81 896.61 884.82 910.25C881.24 908.96 877.79 907.22 875 904.41C875.11 900.82 877.56 898.91 879.52 896.77C890.73 884.48 902 872.25 913.21 859.96C935.14 835.92 952.56 808.91 965.43 779.06C970.99 766.18 974.54 752.68 974.02 738.4C973.38 720.85 965.48 711.87 948.2 708.1C939.13 706.12 930.28 706.69 921.55 708.9C909.32 712 897.49 716.33 886.71 723.1L886.85 723.27H886.86Z" fill="#00274B"/>
<path d="M868.08 786.33C851.54 795.94 834.27 803.07 814.65 802.49C792.29 801.83 777.25 787.48 775.68 765.25C774.75 752.1 777.28 739.45 781.16 726.97C788.34 703.84 799.95 683.02 814.3 663.65C833.01 638.38 854.81 616.09 878.44 596.43C881.42 595.65 882.89 597.19 884.53 598.26C886.18 599.33 887.8 600.44 889.3 601.45C889.54 605.74 886.38 607.57 884.16 609.86C871.41 623 858.28 635.78 845.82 649.18C823.92 672.72 805.71 698.86 793.01 728.51C786.95 742.66 783.06 757.37 785.69 773.15C787.27 782.61 792.51 788.73 800.94 792.62C812.97 798.17 825.42 798.2 838.05 795.42C845.85 793.7 853.37 791.05 860.8 788.11C863.19 787.16 865.4 785.2 868.29 786.54L868.1 786.32L868.08 786.33Z" fill="#00274B"/>
<path d="M603.56 1717.29V1616.76H634.99V1717.29H603.56Z" fill="#00274B"/>
<path d="M364.3 490.41C359.66 489.5 355.58 491.97 350.22 493.7C353.03 487.32 356.78 483.43 360.2 479.19C364.8 473.49 370.91 468.25 369.97 459.67C376.02 454.83 383.33 452.41 390.23 449.23C436.39 427.97 482.51 406.59 530.49 389.62C544.88 384.53 559.54 380.19 574.08 375.49C576.28 374.78 578.44 373.76 580.84 375.03C579.35 377.05 576.99 377.38 574.93 378.18C501.91 406.88 434.06 445.29 368.69 488.31C367.88 488.84 367.24 489.65 366.53 490.33C365.79 490.36 365.04 490.39 364.3 490.41Z" fill="#00274B"/>
<path d="M840.01 684.69C841.19 688.24 837.78 689.62 835.99 691.6C827.75 700.77 819.82 710.15 813.6 720.87C810.07 726.95 807.59 733.36 805.64 740.13C801.91 753.06 810.38 763.54 823.04 758.82C823.49 758.65 824.2 759.19 824.91 759.44C821.65 760.92 818.52 762.3 814.86 762.14C808.56 761.87 804.95 759.52 802.77 753.62C800.01 746.16 799.81 738.49 802.76 731.16C810.1 712.91 822.63 698.26 836.21 684.42C837.11 683.5 838.6 683.34 840.02 684.69H840.01Z" fill="#00274B"/>
<path d="M936.24 747.16C952.58 745.58 957.32 749.74 957.93 763.56C958.24 770.46 956.67 776.83 953.44 782.74C945.22 797.8 933.9 810.45 921.76 822.41C921.1 823.06 921.05 823.02 916.69 822.68C916.06 819.38 919.01 818.22 920.67 816.52C929.3 807.69 937.56 798.58 944.24 788.13C947.66 782.77 950.53 777.2 952.43 771.1C957.09 756.2 953.54 750.17 936.23 747.15L936.24 747.16Z" fill="#00274B"/>
<path d="M1101.84 1747.32C1096.67 1747.33 1092.29 1743.19 1092.11 1738.11C1091.91 1732.57 1096.34 1727.95 1101.86 1727.94C1107.43 1727.94 1111.92 1732.59 1111.64 1738.08C1111.39 1743.15 1106.98 1747.3 1101.84 1747.32Z" fill="#00274B"/>
<path d="M1087.73 1737.14C1087.99 1742.73 1083.56 1747.35 1077.97 1747.31C1072.84 1747.28 1068.38 1743.04 1068.21 1738.04C1068.04 1732.96 1072.05 1728.4 1077.09 1727.94C1082.68 1727.43 1087.48 1731.57 1087.73 1737.13V1737.14Z" fill="#00274B"/>
<path d="M312.87 1616.95C315.9 1608.68 318.6 1606.42 324.34 1607.32C329.39 1608.11 332.54 1611.95 332.39 1617.12C332.26 1621.85 329.24 1625.36 324.66 1626.11C318.64 1627.1 315.94 1625 312.86 1616.95H312.87Z" fill="#00274B"/>
<path d="M830.05 1625.91C828.36 1626.02 827.05 1626.19 825.75 1626.16C824.46 1626.13 823.17 1625.89 822.1 1625.77C815.31 1619.28 814.59 1614.78 819.37 1609.98C822.98 1606.36 828.87 1606.22 832.64 1609.67C837.44 1614.07 836.78 1619.03 830.05 1625.91Z" fill="#00274B"/>
<path d="M802.91 1626.14C797.2 1626.18 793.37 1622.6 793.27 1617.12C793.17 1611.66 796.93 1607.54 802.26 1607.28C808.18 1606.99 812.41 1611.05 812.34 1616.96C812.28 1622.58 808.67 1626.1 802.9 1626.14H802.91Z" fill="#00274B"/>
<path d="M876.87 783.11C876.42 779.09 879.25 781.09 880.88 780.9C880.86 780.89 880.61 780.72 880.61 780.72C879.3 781.46 878 782.21 876.69 782.95L876.87 783.11Z" fill="#00274B"/>
<path d="M876.69 782.95C875.34 783.62 873.99 784.279 872.61 784.919C872.59 784.889 872.76 785.099 872.76 785.099C872.55 781.299 874.7 782.22 876.84 783.09C876.86 783.11 876.69 782.95 876.69 782.95Z" fill="#00274B"/>
<path d="M868.28 786.55C868.81 783.2 870.73 784.01 872.75 785.08C872.77 785.1 872.59 784.9 872.62 784.93C871.12 785.42 869.6 785.87 868.09 786.33L868.29 786.55H868.28Z" fill="#00274B"/>
<path d="M881.6 777.88C882.46 777.52 883.31 777.16 884.27 776.76C883.8 779.08 882.18 777 881.35 777.66L881.6 777.88Z" fill="#00274B"/>
<path d="M828.83 757.19C829.58 757.09 829.88 757.01 830.18 757.03C830.28 757.03 830.36 757.28 830.45 757.41C830.05 757.36 829.65 757.3 828.83 757.19Z" fill="#00274B"/>
<path d="M876.6 728.79C875.73 729.07 874.87 729.36 873.95 729.66C874.45 727.36 876.07 730 876.82 728.98L876.6 728.8V728.79Z" fill="#00274B"/>
<path d="M881.7 723.98C881.24 726.8 879.27 726.09 877.48 725.8C877.49 725.81 877.75 726.031 877.75 726.031C878.83 724.751 880.32 724.391 881.89 724.201L881.7 723.98Z" fill="#00274B"/>
<path d="M886.72 723.1C885.05 723.37 883.55 724.651 881.71 723.991C881.71 723.991 881.9 724.211 881.9 724.201C883.15 721.911 884.84 721.811 886.84 723.251C886.86 723.281 886.72 723.1 886.72 723.1Z" fill="#00274B"/>
<path d="M364.17 462.74C363.37 463.21 362.56 463.69 361.76 464.16C362.2 463.07 363.02 462.63 364.17 462.74Z" fill="#00274B"/>
<path d="M360.14 464.86C359.41 465.31 358.68 465.77 357.95 466.22C358.33 465.2 359.03 464.69 360.14 464.86Z" fill="#00274B"/>
<path d="M356.12 466.98C355.48 467.41 354.85 467.85 354.21 468.28C354.5 467.34 355.09 466.83 356.12 466.98Z" fill="#00274B"/>
<path d="M352.22 470.05C352.22 469.7 352.26 469.36 352.31 469.02C352.91 468.79 353.52 468.56 354.12 468.33C353.85 469.31 353.3 469.97 352.22 470.05Z" fill="#00274B"/>
<path d="M368.18 460.66C367.31 461.14 366.44 461.62 365.57 462.11C366.07 460.96 367 460.58 368.18 460.66Z" fill="#00274B"/>
<path d="M881.35 777.66C882.31 778.99 881.31 779.8 880.58 780.7C880.6 780.72 880.85 780.89 880.87 780.9C879.27 779.45 880.69 778.73 881.61 777.89C881.59 777.87 881.35 777.66 881.35 777.66Z" fill="#00274B"/>
<path d="M876.82 728.98C875.68 727.52 876.62 726.75 877.77 726.05C877.76 726.04 877.5 725.82 877.48 725.81C878.41 727.17 877.19 727.88 876.57 728.78C876.59 728.8 876.82 728.98 876.82 728.98Z" fill="#00274B"/>
</g>
<defs>
<clipPath id="clip0_6026_2451">
<rect width="1575.23" height="1747.68" fill="white"/>
</clipPath>
</defs>
</svg>
