<svg xmlns:xlink="http://www.w3.org/1999/xlink" xmlns="http://www.w3.org/2000/svg" enable-background="new 0 0 2500 2500" viewBox="0 0 2500 2500" width="360" height="360"><path d="M1600.29,1948.42c-260.49,0-472.41-211.92-472.41-472.41s211.92-472.41,472.41-472.41
				c260.49,0,472.41,211.92,472.41,472.41S1860.78,1948.42,1600.29,1948.42z M1600.29,1010.37
				c-256.76,0-465.64,208.89-465.64,465.64s208.89,465.64,465.64,465.64c256.75,0,465.64-208.89,465.64-465.64
				S1857.05,1010.37,1600.29,1010.37z"></path><path fill="#54A0C4" d="M1220.96,1623.29c78.91-1.79,315.72,0,315.72,0c114.34,0,206.1,94.42,202.83,208.71l-8.57,299.82H747.3
						l16.32-304.68c5.58-104.15,89.21-187.11,193.41-191.85C957.03,1635.28,1154.93,1624.79,1220.96,1623.29z" class="color8670c5 svgShape"></path><polyline fill="#54A0C4" points="802.6 1868.46 928.39 2131.82 779.22 2131.82 797.14 1866.21" class="color4c2ba0 svgShape"></polyline><path d="M769.58,1684.31c0,0-7.99-64.25-168.59-43.1c-138.47,18.23-203.74,129.12-191.79,135.12
						c11.96,6,157.89,62.96,157.89,62.96s92.02-11.62,93.96-14.53s86.25-83.3,86.25-83.3L769.58,1684.31z"></path><path fill="#FFFFFF" d="M719.62,1802.16c0,0,12.16-188.4-14.35-259.83s-102.04-131.49-126.11-183.03
							c-26.22-56.15-42.01-169.85-87.78-146.72c-59.6,30.12-2.75,159.47-2.75,159.47s-72-3.93-60.02,67.83
							c0,0-61.34,5.97-44.73,84.33c0,0-47.02,2.63-19.34,74.86s126.85,228.03,126.85,228.03L719.62,1802.16z" class="colorfff svgShape"></path><path d="M491.38,1830.5c-1.15,0-2.23-0.58-2.85-1.57c-0.99-1.56-99.67-156.91-127.15-228.63
							c-10.96-28.61-11.88-50.29-2.72-64.45c6.39-9.87,15.94-13.27,21.21-14.42c-4.9-26.04-1.73-46.95,9.43-62.17
							c11.55-15.75,28.24-20.71,35.47-22.17c-2.82-20.75,1.12-37.26,11.72-49.11c14.4-16.1,36.89-18.89,47.06-19.29
							c-9.88-24.21-49.51-130.91,6.31-159.12c7.88-3.98,15.48-4.49,22.6-1.52c22.27,9.3,36.05,52.11,49.38,93.51
							c6.44,20.02,13.11,40.71,20.39,56.31c10.18,21.81,30.14,45.63,51.26,70.85c27.96,33.39,59.66,71.23,74.95,112.43
							c26.46,71.29,15.06,253.51,14.56,261.23c-0.11,1.64-1.38,2.97-3.01,3.14l-228.24,24.95
							C491.63,1830.49,491.5,1830.5,491.38,1830.5z M486.85,1375.41c-6.48,0-31.05,1.1-45.35,17.11
							c-9.71,10.87-12.92,26.62-9.55,46.81c0.15,0.92-0.08,1.87-0.65,2.61c-0.57,0.74-1.42,1.22-2.35,1.31
							c-0.21,0.02-21.31,2.35-34.25,20.08c-10.42,14.28-12.95,34.53-7.51,60.19c0.2,0.97-0.02,1.97-0.62,2.76
							c-0.6,0.78-1.51,1.27-2.5,1.32c-0.5,0.03-12.67,0.93-19.78,12.01c-7.75,12.07-6.57,32.22,3.41,58.26
							c25.66,66.96,114.37,208.16,125.42,225.65l223.3-24.41c1.36-23.81,9.88-190.41-14.32-255.61
							c-14.89-40.11-46.18-77.47-73.79-110.44c-21.42-25.57-41.65-49.73-52.21-72.33c-7.46-15.98-14.19-36.89-20.7-57.1
							c-12.86-39.94-26.16-81.24-45.55-89.34c-5.28-2.2-10.82-1.78-16.94,1.32c-56.06,28.33-1.73,153.83-1.18,155.09
							c0.47,1.08,0.35,2.32-0.32,3.28c-0.67,0.97-1.79,1.51-2.96,1.45C488.41,1375.43,487.84,1375.41,486.85,1375.41z
							 M719.62,1802.16h0.03H719.62z"></path><path fill="#FFFFFF" d="M383.88,1524.22c0,0,4.34,17.86,29.34,46.47c25,28.61,50.49,45.25,72.86,32.27
							c22.36-12.98,10.98-47.7,10.98-47.7" class="colorfff svgShape"></path><path d="M469.65,1610.92c-17.3,0-36.77-12.59-58.98-38c-25.26-28.9-29.89-47.14-30.08-47.9c-0.44-1.82,0.67-3.64,2.49-4.09
							c1.81-0.44,3.64,0.67,4.08,2.48c0.07,0.29,4.68,17.68,28.6,45.05c27.85,31.88,50.29,42.21,68.61,31.57
							c19.76-11.47,9.57-43.4,9.46-43.72c-0.58-1.77,0.38-3.69,2.16-4.27c1.78-0.58,3.68,0.39,4.27,2.16
							c0.5,1.52,11.96,37.48-12.49,51.67C482,1609.24,475.97,1610.92,469.65,1610.92z"></path><path fill="#FFFFFF" d="M428.61,1439.89c10.09,39.7,55.04,153.02,113.74,117.15c45.11-27.56-53.73-184.99-53.73-184.99" class="colorfff svgShape"></path><path d="M519.64,1567.35c-5.52,0-11.04-1.12-16.55-3.36c-42.26-17.21-71.02-96.76-77.76-123.27
							c-0.46-1.81,0.63-3.65,2.44-4.11c1.82-0.46,3.65,0.63,4.11,2.45c6.52,25.65,34.07,102.51,73.75,118.67
							c11.76,4.79,23.19,3.62,34.95-3.57c4.62-2.82,7.59-7.29,9.09-13.66c10.96-46.61-63.17-165.44-63.92-166.64
							c-0.99-1.58-0.52-3.67,1.07-4.66c1.58-0.99,3.67-0.52,4.66,1.07c3.12,4.98,76.37,122.44,64.77,171.78
							c-1.91,8.11-5.99,14.13-12.15,17.89C536.03,1564.87,527.84,1567.35,519.64,1567.35z"></path><path fill="#FFFFFF" d="M458.2,1605.52c0,0,4.35,30.4-13.52,43.15c-26.37,18.82-64.87-17.65-64.87-17.65" class="colorfff svgShape"></path><path d="M427.32,1657.49c-24.13,0-48.54-22.78-49.84-24.01c-1.36-1.28-1.41-3.42-0.13-4.78c1.28-1.36,3.42-1.42,4.78-0.13
							c0.37,0.34,36.81,34.32,60.58,17.35c16.01-11.42,12.18-39.63,12.14-39.92c-0.27-1.85,1.02-3.56,2.87-3.83
							c1.83-0.26,3.56,1.02,3.83,2.87c0.19,1.32,4.42,32.6-14.9,46.38C440.55,1655.78,433.94,1657.49,427.32,1657.49z"></path><path fill="#FFFFFF" d="M676.54,1513.83c0,0-26.1-42.78-88.21-37.35s-120.1,44.04-103.77,84.45s169.01,27.97,169.01,27.97" class="colorfff svgShape"></path><path d="M603.45,1594.12c-46.95,0-111.16-5.07-122.02-31.92c-5.1-12.61-3.73-25.91,3.96-38.45
							c15.88-25.91,58.09-46.73,102.65-50.63c63.48-5.56,91.13,38.51,91.4,38.95c0.97,1.59,0.47,3.67-1.12,4.64
							c-1.6,0.97-3.67,0.47-4.65-1.12c-1.03-1.67-25.89-40.92-85.03-35.74c-42.56,3.72-82.65,23.23-97.47,47.43
							c-6.61,10.79-7.77,21.69-3.45,32.38c12.63,31.25,123.83,29.26,165.61,25.86c1.85-0.17,3.49,1.24,3.65,3.1s-1.23,3.49-3.1,3.65
							C651.55,1592.46,630.32,1594.12,603.45,1594.12z"></path><path fill="#54A0C4" d="M837.38,2131.82l-67.8-447.51c-53.27,93.96-226.7,162.73-360.38,92.02l153.09,355.49H837.38z" class="color8670c5 svgShape"></path><line x1="837.38" x2="797.14" y1="2131.82" y2="1827.11" fill="#FFFFFF"></line><path d="M837.38,2135.2c-1.67,0-3.12-1.24-3.35-2.94l-40.24-304.7c-0.24-1.85,1.06-3.55,2.91-3.8
							c1.84-0.23,3.55,1.06,3.8,2.91l40.24,304.7c0.24,1.85-1.06,3.55-2.91,3.8C837.67,2135.19,837.52,2135.2,837.38,2135.2z"></path><path fill="#FFFFFF" d="M1341.02,1621.29c0.01,46.1-54.37,51.39-108.74,51.39c-54.37,0-108.74-5.29-108.74-51.39v-193.97h217.49
							V1621.29z" class="colorfff svgShape"></path><path d="M1232.28,1676.07c-25.29,0-54.08-1.02-75.87-8.59c-24.06-8.36-36.26-23.9-36.26-46.18v-193.97
							c0-1.87,1.51-3.38,3.38-3.38h217.49c1.87,0,3.38,1.51,3.38,3.38v193.97c0,22.28-12.19,37.82-36.25,46.18
							C1286.36,1675.05,1257.57,1676.07,1232.28,1676.07z M1126.92,1430.71v190.59c0,19.36,10.37,32.38,31.71,39.79
							c20.85,7.24,48.93,8.22,73.65,8.22c24.72,0,52.81-0.98,73.65-8.22c21.34-7.42,31.71-20.43,31.71-39.79l0,0v-190.59H1126.92z"></path><path fill="#FFFFFF" d="M1441.4,1272.28c0,175.57-82.4,277.22-215.81,277.22c-104.96,0-215.81-101.65-215.81-277.22
							c0-143.09,96.62-220.11,215.81-220.11S1441.4,1129.19,1441.4,1272.28z" class="colorfff svgShape"></path><path d="M1225.59,1552.88c-107.74,0-219.19-104.96-219.19-280.6c0-68.72,22.22-126.18,64.26-166.16
							c38.87-36.97,93.89-57.33,154.93-57.33c61.04,0,116.06,20.36,154.93,57.33c42.04,39.98,64.26,97.44,64.26,166.16
							C1444.78,1447.98,1362.84,1552.88,1225.59,1552.88z M1225.59,1055.55c-129.04,0-212.43,85.07-212.43,216.73
							c0,171.41,108.01,273.83,212.43,273.83c133.01,0,212.42-102.37,212.42-273.83
							C1438.02,1140.62,1354.64,1055.55,1225.59,1055.55z"></path><path fill="#F6538A" d="M954.01,1201.91l-12.82-4.32c15.7-46.63,49.72-82.68,101.12-107.16
							c107.71-51.31,257.92-36.96,351.88-1.92c73.99,27.59,92.18,75.73,94.41,111.26l-13.5,0.85
							c-2.88-45.86-31.69-79.31-85.64-99.43c-91.38-34.08-237.18-48.16-341.34,1.46C1000.16,1125.49,968.49,1158.89,954.01,1201.91z
							" class="colorf6538a svgShape"></path><path d="M1042.79,1247.24c0,0,18.32,13.3,23.18,31.36c0,0-12.41-102.34-6.61-122.71c5.8-20.37,35.9-43.99,73.87-37.04
							c37.97,6.95,114.38,11.58,160.22,3.24c45.84-8.34,68.07,5.56,81.96,24.08c13.89,18.52,5.56,144.94,5.56,144.94
							s13.54-31.03,18.72-35.92s61.35-24.63,61.35-24.63s24.32-80.69,11.72-130.7c-12.6-50.01-23.25-91.69-12.14-99.56
							c11.11-7.87,17.13,30.56,29.64,28.25c12.5-2.32,16.67-38.43,0-60.2c-16.67-21.76-51.4-35.19-85.67-33.34
							c-34.27,1.85-43.99,22.23-68.07,15.28s3.24-51.4,13.43-65.29c10.19-13.89-14.35-24.54-46.77-18.52
							c-32.41,6.02-74.55,26.39-88.91,46.77s-30.1,62.05-50.47,55.1c-20.37-6.95,0.93-59.27,4.63-70.39
							c3.7-11.11-28.25-13.43-63.44,0.93c-35.19,14.35-82.89,53.71-121.32,117.62c-38.43,63.9-13.14,207.2,0,227.36
							C996.8,1264.04,1042.79,1247.24,1042.79,1247.24z"></path><path d="M980.04 1066.16c-3.85 0-7.32-2.64-8.23-6.54-12.58-54.07 3.32-112.7 41.48-153.01 3.21-3.39 8.56-3.54 11.96-.33 3.39 3.21 3.54 8.56.33 11.96-33.79 35.69-48.42 89.68-37.29 137.55 1.06 4.55-1.77 9.1-6.32 10.15C981.32 1066.09 980.67 1066.16 980.04 1066.16zM1506.38 1167.83c-.52 0-1.04-.05-1.57-.15-4.59-.86-7.61-5.28-6.75-9.87 4.49-23.95.39-49.97-11.24-71.38-11.63-21.41-31.23-39.01-53.77-48.28-4.32-1.78-6.38-6.72-4.6-11.04 1.77-4.32 6.72-6.38 11.04-4.61 26.46 10.88 48.55 30.71 62.2 55.85 13.66 25.13 18.27 54.46 13.01 82.57C1513.92 1165 1510.37 1167.83 1506.38 1167.83z"></path><path fill="#FFFFFF" d="M1391.82,1263.69c0,0,54.84-67.56,90.5-15.22c35.66,52.34-5.41,107.18-66.12,110.1" class="colorfff svgShape"></path><path d="M1416.2,1361.95c-1.79,0-3.29-1.41-3.38-3.22c-0.09-1.87,1.35-3.45,3.22-3.54c31.31-1.5,58.15-17.27,70.05-41.14
							c10.03-20.13,7.7-42.74-6.56-63.68c-7.99-11.73-17.6-17.91-28.57-18.37c-27.76-1.18-56.23,33.47-56.51,33.82
							c-1.18,1.45-3.31,1.67-4.76,0.49c-1.45-1.18-1.67-3.31-0.49-4.76c1.25-1.54,30.8-37.69,62.04-36.32
							c13.22,0.55,24.63,7.73,33.89,21.32c15.7,23.05,18.2,48.09,7.02,70.5c-12.99,26.06-42.02,43.25-75.78,44.88
							C1416.31,1361.95,1416.25,1361.95,1416.2,1361.95z"></path><path fill="#FFFFFF" d="M1059.37,1263.69c0,0-54.84-67.56-90.5-15.22c-35.66,52.34,5.41,107.18,66.12,110.1" class="colorfff svgShape"></path><path d="M1034.99,1361.95c-0.06,0-0.11,0-0.17,0c-33.76-1.62-62.79-18.82-75.78-44.88c-11.17-22.42-8.68-47.46,7.02-70.5
								c9.26-13.6,20.66-20.77,33.89-21.32c31.07-1.32,60.79,34.78,62.03,36.32c1.18,1.45,0.96,3.58-0.49,4.76
								c-1.45,1.18-3.58,0.96-4.76-0.49c-0.28-0.35-28.72-34.99-56.51-33.82c-10.97,0.46-20.58,6.65-28.57,18.37
								c-14.26,20.94-16.59,43.55-6.56,63.68c11.9,23.87,38.74,39.63,70.05,41.14c1.87,0.09,3.31,1.67,3.22,3.54
								C1038.28,1360.54,1036.78,1361.95,1034.99,1361.95z"></path><polygon fill="#FFFFFF" points="1341.02 1579.7 1404.95 1624.25 1305.18 1768.58 1232.28 1672.69" class="colorfff svgShape"></polygon><path d="M1305.18,1771.96c-1.06,0-2.05-0.49-2.69-1.34l-72.9-95.89c-1.09-1.43-0.87-3.45,0.49-4.62l108.75-92.99
						c1.17-1,2.87-1.09,4.13-0.2l63.93,44.56c1.53,1.07,1.91,3.17,0.85,4.7l-99.77,144.33c-0.62,0.89-1.62,1.43-2.71,1.46
						C1305.23,1771.96,1305.21,1771.96,1305.18,1771.96z M1236.91,1673.18l68.15,89.64l95.2-137.72l-59.02-41.13L1236.91,1673.18z"></path><polygon fill="#FFFFFF" points="1232.28 1672.69 1156.02 1768.58 1059.37 1630.08 1123.53 1584.54" class="colorfff svgShape"></polygon><path d="M1156.01,1771.96c-0.03,0-0.07,0-0.11,0c-1.07-0.03-2.06-0.57-2.67-1.45l-96.65-138.5c-1.06-1.52-0.7-3.62,0.82-4.69
						l64.17-45.54c1.24-0.88,2.91-0.83,4.09,0.13l108.74,88.15c1.44,1.17,1.67,3.28,0.52,4.73l-76.26,95.89
						C1158.02,1771.49,1157.04,1771.96,1156.01,1771.96z M1064.06,1630.9l92.13,132.02l71.35-89.72l-104.15-84.42L1064.06,1630.9z"></path><line x1="1501.25" x2="1514.89" y1="2131.82" y2="1859.15" fill="#FFFFFF"></line><path d="M1501.25 2135.2c-.06 0-.11 0-.17 0-1.87-.09-3.3-1.68-3.21-3.55l13.64-272.67c.09-1.87 1.74-3.28 3.55-3.21 1.87.09 3.3 1.68 3.21 3.55l-13.64 272.67C1504.54 2133.79 1503.04 2135.2 1501.25 2135.2zM1315.29 1305.28c0 12.09-7.67 21.9-17.1 21.9s-17.08-9.81-17.08-21.9c0-12.12 7.65-21.92 17.08-21.92S1315.29 1293.16 1315.29 1305.28z"></path><path fill="#FFFFFF" d="M1333.91,1279.87c-7.43-11.93-20.63-19.89-35.71-19.89c-15.09,0-28.28,7.96-35.71,19.89" class="colorfff svgShape"></path><path d="M1333.91 1283.25c-1.13 0-2.23-.57-2.87-1.59-7.14-11.46-19.41-18.3-32.84-18.3-13.43 0-25.71 6.84-32.83 18.29-.99 1.58-3.08 2.07-4.66 1.09-1.59-.99-2.07-3.07-1.09-4.66 8.37-13.45 22.79-21.48 38.58-21.48 15.78 0 30.2 8.03 38.58 21.48.99 1.59.5 3.67-1.08 4.66C1335.14 1283.09 1334.52 1283.25 1333.91 1283.25zM1162.92 1305.28c0 12.09-7.67 21.9-17.1 21.9-9.44 0-17.08-9.81-17.08-21.9 0-12.12 7.65-21.92 17.08-21.92C1155.25 1283.36 1162.92 1293.16 1162.92 1305.28z"></path><path fill="#FFFFFF" d="M1181.53,1279.87c-7.43-11.93-20.63-19.89-35.71-19.89c-15.09,0-28.28,7.96-35.71,19.89" class="colorfff svgShape"></path><path d="M1110.11,1283.25c-0.61,0-1.23-0.17-1.78-0.51c-1.59-0.99-2.07-3.07-1.09-4.66c8.37-13.45,22.79-21.48,38.58-21.48
						c15.78,0,30.2,8.03,38.58,21.48c0.99,1.59,0.5,3.67-1.08,4.66c-1.58,0.99-3.67,0.5-4.66-1.08
						c-7.14-11.46-19.41-18.3-32.84-18.3c-13.43,0-25.71,6.84-32.83,18.29C1112.34,1282.68,1111.24,1283.25,1110.11,1283.25z"></path><g><path d="M1213.33,1417.89c-0.05,0-0.1,0-0.15,0c-5.34-0.24-11.38-0.51-16.99-2.65c-6.69-2.56-11.56-7.57-13.02-13.41
					c-1.24-4.96-0.09-10.63,3.22-15.96c2.15-3.46,4.87-6.36,7.51-9.17c0.63-0.68,1.27-1.35,1.89-2.03
					c17.44-19.07,27.89-44.83,28.66-70.66c0.06-1.87,1.57-3.34,3.48-3.28c1.87,0.06,3.34,1.61,3.28,3.48
					c-0.82,27.43-11.91,54.77-30.43,75.02c-0.64,0.7-1.29,1.4-1.95,2.09c-2.52,2.69-4.9,5.23-6.7,8.12
					c-1.36,2.18-3.47,6.48-2.4,10.75c1.09,4.35,5.3,7.36,8.87,8.73c4.58,1.75,9.81,1.98,14.87,2.21c1.87,0.08,3.31,1.66,3.23,3.53
					C1216.63,1416.47,1215.13,1417.89,1213.33,1417.89z"></path></g><g><path d="M1222.74,1487.44c-17.37,0-34.33-6.05-49.33-11.4c-1.76-0.63-2.68-2.56-2.05-4.32c0.63-1.76,2.56-2.68,4.32-2.05
					c15.62,5.57,31.75,11.31,48.43,10.99c17.76-0.36,33.34-8.83,39.69-21.59c0.83-1.67,2.85-2.36,4.54-1.52
					c1.67,0.83,2.35,2.86,1.52,4.54c-7.46,14.98-25.36,24.92-45.6,25.34C1223.74,1487.43,1223.24,1487.44,1222.74,1487.44z"></path></g><g><polygon fill="#F0F963" points="1529.87 1534.94 1684.56 1124.35 1911.79 1306.58" class="colorc2f963 svgShape"></polygon></g><g><polygon fill="#FFFFFF" points="1787.39 1434.31 1654.64 1530.09 1817.46 1563.96" class="colorfff svgShape"></polygon><path d="M1817.47,1567.34c-0.23,0-0.46-0.02-0.69-0.07l-162.82-33.87c-1.31-0.27-2.34-1.3-2.62-2.61
						c-0.28-1.31,0.24-2.66,1.33-3.45l132.74-95.78c0.92-0.66,2.1-0.82,3.17-0.42c1.06,0.4,1.85,1.3,2.11,2.4l30.08,129.65
						c0.26,1.12-0.07,2.3-0.88,3.13C1819.24,1566.98,1818.37,1567.34,1817.47,1567.34z M1662.85,1528.34l150.13,31.23l-27.73-119.55
						L1662.85,1528.34z"></path></g><g><circle cx="1361.87" cy="563.76" r="198.91" fill="#F0F963" class="colorc2f963 svgShape"></circle></g><g><path fill="#FFFFFF" d="M1333.58,558.74c10.17,11.52,21.5,21.98,33.81,31.18c6.62,4.97,15.07,5.56,20.41,1.78
				c6.4-4.46,12.57-9.14,18.51-14.02c5.04-4.07,12.16-4.75,18.26-1.93c10.74,4.99,22.06,8.97,33.81,11.81
				c8.53,2.08,14.84,9.71,13.75,17.91c-2.35,15.74-4.7,31.47-7.04,47.21c-1.08,8.17-12.46,13.4-24.98,10.35
				c-87.08-21.06-157.23-85.77-185.25-170.86c-4.03-12.23,0.24-24.01,8.3-25.74c15.5-3.61,30.99-7.22,46.49-10.83
				c8.09-1.74,16.19,3.92,18.96,12.26c3.78,11.48,8.66,22.43,14.5,32.74c3.3,5.84,3.21,13-0.45,18.35
				c-4.39,6.31-8.55,12.85-12.48,19.58C1326.81,544.17,1328.09,552.55,1333.58,558.74z" class="colorfff svgShape"></path></g><g><polyline fill="#D4E8E8" points="701.55 1154.05 836.68 1254.3 854.11 1081.4" class="colord4e8e8 svgShape"></polyline><polygon fill="#D4E8E8" points="902.33 1193.83 255.99 1095.03 250 791.61 858.3 922.37" class="colord4e8e8 svgShape"></polygon><path fill="#F6538A" d="M605.96,850.26l20.82-276.23c2.39-31.67-16.65-61.05-46.53-71.81l0,0c-48.24-17.37-98.34,20.78-94.43,71.9
						l21.17,276.2c1.74,22.66,18.64,41.24,41.04,45.11h0C576.89,900.42,603.76,879.46,605.96,850.26z" class="colorf6538a svgShape"></path><circle cx="554.15" cy="992.72" r="64.99" fill="#F6538A" class="colorf6538a svgShape"></circle></g><g><path fill="#F6538A" d="M2190.01,1001.08c-89.13,73.06-207.96,56.19-264.77,42.08c-20.49-5.09-35.18-23.01-36.16-44.12
				c-2.68-58.48,4.11-178.3,93.24-251.36c69.98-57.36,173.2-47.13,230.56,22.85C2270.23,840.51,2260,943.72,2190.01,1001.08z" class="colorf6538a svgShape"></path></g><g><circle cx="2086.17" cy="874.38" r="76.32" fill="#FFFFFF" class="colorfff svgShape"></circle></g><g><path fill="#F6538A" d="M1472.28,1287.98c2.94,16.34-9.27,32.22-27.21,35.44c-15.02,2.7-25.65-56.49-10.63-59.19
			C1452.38,1261,1469.35,1271.63,1472.28,1287.98z" class="colorf6538a svgShape"></path></g><g><path d="M1443.7,1330.56c-0.91,0-1.82-0.36-2.48-1.08c-27.05-29.19-13.54-68.94-12.95-70.62c0.62-1.76,2.54-2.69,4.31-2.07
			c1.76,0.62,2.69,2.54,2.08,4.31c-0.13,0.37-12.71,37.62,11.53,63.79c1.27,1.37,1.19,3.51-0.18,4.78
			C1445.35,1330.26,1444.53,1330.56,1443.7,1330.56z"></path></g><g><path fill="#F6538A" d="M985.15,1287.98c-2.94,16.34,9.27,32.22,27.21,35.44c15.02,2.7,25.65-56.49,10.63-59.19
			C1005.05,1261,988.09,1271.63,985.15,1287.98z" class="colorf6538a svgShape"></path></g><g><path d="M1013.73,1330.56c-0.82,0-1.65-0.3-2.3-0.9c-1.37-1.27-1.45-3.41-0.18-4.78c24.31-26.24,11.66-63.41,11.53-63.78
			c-0.62-1.76,0.31-3.69,2.07-4.31c1.76-0.62,3.69,0.31,4.31,2.07c0.59,1.68,14.1,41.43-12.95,70.62
			C1015.55,1330.2,1014.64,1330.56,1013.73,1330.56z"></path></g><g><path fill="#F6538A" d="M991.52,1292.19c-0.71-0.28-70.8-29-50.38-94.45l12.92,4.03c-16.73,53.62,40.04,76.89,42.46,77.85
			L991.52,1292.19z" class="colorf6538a svgShape"></path></g><g><path fill="#F6538A" d="M1465.59,1294.52l-11.69-6.81c0.24-0.41,24.03-41.91,21.19-87.08l13.5-0.85
			C1491.7,1249.15,1466.66,1292.69,1465.59,1294.52z" class="colorf6538a svgShape"></path></g><g><path fill="#F6538A" d="M1364.75,1491.49c-14.01,0-27.44-1.68-38.82-4.57l3.33-13.12c36.49,9.26,99.86,4.83,120.02-34.04
			c30.1-58,7.78-140.5,7.55-141.33l13.04-3.61c0.99,3.58,23.94,88.5-8.58,151.17C1443.96,1479.4,1402.29,1491.48,1364.75,1491.49z" class="colorf6538a svgShape"></path></g><g><circle cx="1323.72" cy="1478.02" r="23.32" fill="#F6538A" class="colorf6538a svgShape"></circle></g></svg>