<svg xmlns="http://www.w3.org/2000/svg" version="1.1" xmlns:xlink="http://www.w3.org/1999/xlink" width="512" height="512" x="0" y="0" viewBox="0 0 64 64" style="enable-background:new 0 0 512 512" xml:space="preserve" class=""><g><path d="M32 18c-8.89 0-10 4.92-10 11s4.48 11 10 11 10-4.92 10-11-1.11-11-10-11Zm0 17a2 2 0 1 1 2-2 2.006 2.006 0 0 1-2 2Zm4.45-10.11L34.24 26a4.999 4.999 0 0 1-4.48 0l-2.21-1.11a.997.997 0 0 1 .9-1.78l2.21 1.1a3.008 3.008 0 0 0 2.68 0l2.21-1.1a.997.997 0 1 1 .9 1.78ZM6.74 29.02l-3.99-1.05a1.002 1.002 0 0 1 .5-1.94l16.83 4.43a12.91 12.91 0 0 0 .4 2.18l-2.2-.58-.012-.003a2.995 2.995 0 1 1-3.288-.867h-.01L8.2 29.4h-.012a2.001 2.001 0 1 1-1.43-.375Zm54.51-1.05-3.99 1.05-.017.004a1.997 1.997 0 1 1-1.427.372l-.016.004-6.78 1.79a3.009 3.009 0 1 1-3.289.867l-.011.003-2.2.58a12.91 12.91 0 0 0 .4-2.18l16.83-4.43a1.002 1.002 0 0 1 .5 1.94ZM42.7 21.4a8.57 8.57 0 0 0-1.05-1.74l3.98-1.59a1 1 0 1 1 .74 1.86Zm-24.33-3.33 3.98 1.59a8.57 8.57 0 0 0-1.05 1.74l-3.67-1.47a1 1 0 0 1 .74-1.86ZM27 14a1 1 0 0 1 1-1h1.773A2.374 2.374 0 0 1 32 11a2.144 2.144 0 0 1 1.51.64 2.667 2.667 0 0 1 .717 1.36H36a1 1 0 0 1 0 2h-1.504l.144 1.16a21.86 21.86 0 0 0-5.28 0l.144-1.16H28a1 1 0 0 1-1-1Zm34 41a2.878 2.878 0 0 1-2.74 3H42.284a2.51 2.51 0 0 1 0-5h2.282c0-.87.436-3 2.539-3a3.765 3.765 0 0 1 2.94 2 3.738 3.738 0 0 1 4.108-4 3.738 3.738 0 0 1 4.109 4A2.878 2.878 0 0 1 61 55ZM42 10.5A2.314 2.314 0 0 1 44.065 8h2.065c0-.87.394-3 2.297-3 1.716 0 2.66 2 2.66 2 0-1.933.929-4 3.717-4s3.717 2.067 3.717 4A2.777 2.777 0 0 1 61 10a2.777 2.777 0 0 1-2.478 3H44.065A2.314 2.314 0 0 1 42 10.5Zm-6 45.9a3.482 3.482 0 0 1-1.11 2.55A3.86 3.86 0 0 1 32.22 60H10.15A3.075 3.075 0 0 1 7 57a2.804 2.804 0 0 1 .2-1.05 2.892 2.892 0 0 1 .72-1.07 3.241 3.241 0 0 1 2.23-.88h3.15a3.303 3.303 0 0 1 1.14-2.8 5.23 5.23 0 0 1 2.37-.8c2.19-.4 4.06 2.4 4.06 2.4 0-2.32 1.87-4.8 6.13-4.8a5.17 5.17 0 0 1 5.22 4.8A3.69 3.69 0 0 1 36 56.4ZM10.15 52a5.248 5.248 0 0 0-3.6 1.42 4.406 4.406 0 0 0-.85 1.08A7.562 7.562 0 0 1 5 51a3.315 3.315 0 0 1 .73-2.12A2.317 2.317 0 0 1 7.5 48H10a3.77 3.77 0 0 1 .9-2.8 2.692 2.692 0 0 1 1.88-.8 2.858 2.858 0 0 1 2.34 1.34s2-3.74 5.38-3.74a6.629 6.629 0 0 1 4.52 2.13 7.83 7.83 0 0 1 1.4 1.89c-3.17.14-5.28 1.45-6.44 3.18a5.24 5.24 0 0 0-2.74-.84c-.26 0-.99.11-.99.11a6.48 6.48 0 0 0-3.03 1.15A4.614 4.614 0 0 0 11.58 52ZM12 16a4 4 0 1 0-4-4 3.999 3.999 0 0 0 4 4Zm0-6a2 2 0 1 1-2 2 2.006 2.006 0 0 1 2-2Zm-1-5V3a1 1 0 0 1 2 0v2a1 1 0 0 1-2 0Zm8 6h2a1 1 0 0 1 0 2h-2a1 1 0 0 1 0-2ZM2 12a1 1 0 0 1 1-1h2a1 1 0 0 1 0 2H3a1 1 0 0 1-1-1Zm14.357-4.234a.999.999 0 0 1-.123-1.409l1.244-1.482A1 1 0 0 1 19.01 6.16l-1.244 1.483a.998.998 0 0 1-1.409.123ZM4.875 6.52A1 1 0 0 1 6.16 4.99l1.483 1.244a1 1 0 1 1-1.286 1.532Z" data-name="24-Loveing copy 3" fill="#54A0C4" opacity="1" data-original="#000000" class=""></path></g></svg>